# xmcd
#
# Track frame offsets:
#	150
#	22829
#	54093
#	79050
#	107406
#	132628
#	149363
#	174786
#	195535
#	216268
#	235281
#	257876
#
# Disc length: 3676 seconds
#
# Revision: 1
# Processed by: cddbd v1.5PL3 Copyright (c) Steve Scherf et al.
# Submitted via: audiograbber 1.82.02
#
DISCID=9d0e5a0c
DTITLE=Various Artist - Blues On KLON, Vol 3
DYEAR=1900
DGENRE=Blues
TTITLE0=B.B. King - Back In L.A.
TTITLE1=Bobby "Blue" Bland - There's A Rat Loose In My House
TTITLE2=John Mayall and The Blues Breakers - One In A Million
TTITLE3=Buddy Guy - Country Man
TTITLE4=Eddy "The Chief" Clearwater - Cool Blues Walk
TTITLE5=Sam Lay - I Got Wise
TTITLE6=Jimmie Vaughan - Astral Projection Blues
TTITLE7=Ruth Brown - Good Day For The Blues
TTITLE8=Johnny Rawls - Louisiana Woman
TTITLE9=Kid Ramos and Janiva Magness - One Woman, One Man
TTITLE10=Little Milton - I've Got The Blues
TTITLE11=Gregg Allman - House Of Blues
EXTD=
EXTT0=
EXTT1=
EXTT2=
EXTT3=
EXTT4=
EXTT5=
EXTT6=
EXTT7=
EXTT8=
EXTT9=
EXTT10=
EXTT11=
PLAYORDER=
